<svg xmlns="http://www.w3.org/2000/svg" viewBox="0 0 1440 160" preserveAspectRatio="xMidYMax slice"><path fill="#18212e" d="M1110,160C1126,130 1138,90 1144,50L1148,10H1149V2H1151V10H1152L1156,50C1162,90 1174,130 1190,160H1176Q1150,126 1124,160ZM1134,100H1166V104H1134Z M1141,56H1159V59H1141Z"/><path fill="#18212e" d="M0,160V108L12,84H132L144,108V160Z M44,85V75H54V85Z M46,75V71H48V75ZM50,75V71H52V75Z M92,85V70H102V85Z M94,70V66H96V70ZM98,70V66H100V70Z M144,160V108L156,80H292L304,108V160Z M192,81V72H202V81Z M194,72V68H196V72ZM198,72V68H200V72Z M248,81V69H258V81Z M250,69V65H252V69ZM254,69V65H256V69Z M304,160V120L316,100H420L432,120V160Z M364,101V88H374V101Z M366,88V84H368V88ZM370,88V84H372V88Z M432,160V108L444,80H564L576,108V160Z M476,81V68H486V81Z M478,68V64H480V68ZM482,68V64H484V68Z M524,81V72H534V81Z M526,72V68H528V72ZM530,72V68H532V72Z M576,160V126L588,106H724L736,126V160Z M652,107V97H662V107Z M654,97V93H656V97ZM658,97V93H660V97Z M736,160V126L748,102H836L848,126V160Z M772,103V91H782V103Z M774,91V87H776V91ZM778,91V87H780V91Z M804,103V90H814V103Z M806,90V86H808V90ZM810,90V86H812V90Z M848,160V120L860,92H948L960,120V160Z M884,93V81H894V93Z M886,81V77H888V81ZM890,81V77H892V81Z M916,93V84H926V93Z M918,84V80H920V84ZM922,84V80H924V84Z M960,160V108L972,80H1044L1056,108V160Z M992,81V69H1002V81Z M994,69V65H996V69ZM998,69V65H1000V69Z M1016,81V68H1026V81Z M1018,68V64H1020V68ZM1022,68V64H1024V68Z M1056,160V130L1068,114H1140L1152,130V160Z M1088,115V100H1098V115Z M1090,100V96H1092V100ZM1094,100V96H1096V100Z M1112,115V105H1122V115Z M1114,105V101H1116V105ZM1118,105V101H1120V105Z M1152,160V130L1164,114H1300L1312,130V160Z M1228,115V106H1238V115Z M1230,106V102H1232V106ZM1234,106V102H1236V106Z M1312,160V126L1324,102H1460L1472,126V160Z M1388,103V88H1398V103Z M1390,88V84H1392V88ZM1394,88V84H1396V88Z"/><path fill="#a8813f" fill-opacity=".45" d="M28,102V95A4,4 0 0 1 36,95V102Z M61,102V95A4,4 0 0 1 69,95V102Z M94,102V95A4,4 0 0 1 102,95V102Z M10,114h6v9h-6Z M10,128h6v9h-6Z M28,114h6v9h-6Z M28,128h6v9h-6Z M46,114h6v9h-6Z M46,128h6v9h-6Z M64,114h6v9h-6Z M64,128h6v9h-6Z M82,114h6v9h-6Z M82,128h6v9h-6Z M100,114h6v9h-6Z M100,128h6v9h-6Z M118,114h6v9h-6Z M118,128h6v9h-6Z M172,100V93A4,4 0 0 1 180,93V100Z M210,100V93A4,4 0 0 1 218,93V100Z M248,100V93A4,4 0 0 1 256,93V100Z M154,114h6v9h-6Z M154,128h6v9h-6Z M172,114h6v9h-6Z M172,128h6v9h-6Z M190,114h6v9h-6Z M190,128h6v9h-6Z M208,114h6v9h-6Z M208,128h6v9h-6Z M226,114h6v9h-6Z M226,128h6v9h-6Z M244,114h6v9h-6Z M244,128h6v9h-6Z M262,114h6v9h-6Z M262,128h6v9h-6Z M280,114h6v9h-6Z M280,128h6v9h-6Z M332,116V109A4,4 0 0 1 340,109V116Z M374,116V109A4,4 0 0 1 382,109V116Z M314,126h6v9h-6Z M314,140h6v9h-6Z M332,126h6v9h-6Z M332,140h6v9h-6Z M350,126h6v9h-6Z M350,140h6v9h-6Z M368,126h6v9h-6Z M368,140h6v9h-6Z M386,126h6v9h-6Z M386,140h6v9h-6Z M404,126h6v9h-6Z M404,140h6v9h-6Z M422,126h6v9h-6Z M422,140h6v9h-6Z M460,100V93A4,4 0 0 1 468,93V100Z M493,100V93A4,4 0 0 1 501,93V100Z M526,100V93A4,4 0 0 1 534,93V100Z M442,114h6v9h-6Z M442,128h6v9h-6Z M460,114h6v9h-6Z M460,128h6v9h-6Z M478,114h6v9h-6Z M478,128h6v9h-6Z M496,114h6v9h-6Z M496,128h6v9h-6Z M514,114h6v9h-6Z M514,128h6v9h-6Z M532,114h6v9h-6Z M532,128h6v9h-6Z M550,114h6v9h-6Z M550,128h6v9h-6Z M604,122V115A4,4 0 0 1 612,115V122Z M642,122V115A4,4 0 0 1 650,115V122Z M680,122V115A4,4 0 0 1 688,115V122Z M586,132h6v9h-6Z M586,146h6v9h-6Z M604,132h6v9h-6Z M604,146h6v9h-6Z M622,132h6v9h-6Z M622,146h6v9h-6Z M640,132h6v9h-6Z M640,146h6v9h-6Z M658,132h6v9h-6Z M658,146h6v9h-6Z M676,132h6v9h-6Z M676,146h6v9h-6Z M694,132h6v9h-6Z M694,146h6v9h-6Z M712,132h6v9h-6Z M712,146h6v9h-6Z M764,120V113A4,4 0 0 1 772,113V120Z M798,120V113A4,4 0 0 1 806,113V120Z M746,132h6v9h-6Z M746,146h6v9h-6Z M764,132h6v9h-6Z M764,146h6v9h-6Z M782,132h6v9h-6Z M782,146h6v9h-6Z M800,132h6v9h-6Z M800,146h6v9h-6Z M818,132h6v9h-6Z M818,146h6v9h-6Z M836,132h6v9h-6Z M836,146h6v9h-6Z M876,112V105A4,4 0 0 1 884,105V112Z M910,112V105A4,4 0 0 1 918,105V112Z M858,126h6v9h-6Z M858,140h6v9h-6Z M876,126h6v9h-6Z M876,140h6v9h-6Z M894,126h6v9h-6Z M894,140h6v9h-6Z M912,126h6v9h-6Z M912,140h6v9h-6Z M930,126h6v9h-6Z M930,140h6v9h-6Z M948,126h6v9h-6Z M948,140h6v9h-6Z M988,100V93A4,4 0 0 1 996,93V100Z M970,114h6v9h-6Z M970,128h6v9h-6Z M988,114h6v9h-6Z M988,128h6v9h-6Z M1006,114h6v9h-6Z M1006,128h6v9h-6Z M1024,114h6v9h-6Z M1024,128h6v9h-6Z M1042,114h6v9h-6Z M1042,128h6v9h-6Z M1084,128V121A4,4 0 0 1 1092,121V128Z M1066,136h6v9h-6Z M1084,136h6v9h-6Z M1102,136h6v9h-6Z M1120,136h6v9h-6Z M1138,136h6v9h-6Z M1180,128V121A4,4 0 0 1 1188,121V128Z M1218,128V121A4,4 0 0 1 1226,121V128Z M1256,128V121A4,4 0 0 1 1264,121V128Z M1162,136h6v9h-6Z M1180,136h6v9h-6Z M1198,136h6v9h-6Z M1216,136h6v9h-6Z M1234,136h6v9h-6Z M1252,136h6v9h-6Z M1270,136h6v9h-6Z M1288,136h6v9h-6Z M1340,120V113A4,4 0 0 1 1348,113V120Z M1378,120V113A4,4 0 0 1 1386,113V120Z M1416,120V113A4,4 0 0 1 1424,113V120Z M1322,132h6v9h-6Z M1322,146h6v9h-6Z M1340,132h6v9h-6Z M1340,146h6v9h-6Z M1358,132h6v9h-6Z M1358,146h6v9h-6Z M1376,132h6v9h-6Z M1376,146h6v9h-6Z M1394,132h6v9h-6Z M1394,146h6v9h-6Z M1412,132h6v9h-6Z M1412,146h6v9h-6Z M1430,132h6v9h-6Z M1430,146h6v9h-6Z M1448,132h6v9h-6Z M1448,146h6v9h-6Z"/></svg>